<svg width="150" height="41" viewBox="0 0 150 41" fill="none" xmlns="http://www.w3.org/2000/svg">
<path d="M45.0326 30.3204C39.4844 39.8467 27.0823 43.1409 17.4724 37.6409C7.86259 32.1409 4.53947 19.8467 10.0877 10.3204C15.636 0.794129 28.038 -2.5001 37.6479 2.9999C47.2577 8.4999 50.5808 20.7941 45.0326 30.3204Z" fill="white"/>
<path d="M22.2149 28.18C20.3482 28.18 18.8682 27.86 17.7749 27.22C16.6949 26.58 16.1549 25.6933 16.1549 24.56C16.1549 24.0666 16.3416 23.6666 16.7149 23.36C17.0882 23.0533 17.7149 22.9 18.5949 22.9C18.6482 23.8733 18.9816 24.6133 19.5949 25.12C20.2216 25.6133 21.0949 25.86 22.2149 25.86C23.0816 25.86 23.7616 25.7133 24.2549 25.42C24.7482 25.1133 24.9949 24.6933 24.9949 24.16C24.9949 23.8 24.9016 23.5066 24.7149 23.28C24.5282 23.0533 24.2016 22.8466 23.7349 22.66C23.2816 22.4733 22.6149 22.28 21.7349 22.08C20.4016 21.7733 19.3549 21.4266 18.5949 21.04C17.8349 20.6533 17.2816 20.1933 16.9349 19.66C16.6016 19.1266 16.4349 18.46 16.4349 17.66C16.4349 16.9 16.6616 16.2333 17.1149 15.66C17.5816 15.0733 18.2282 14.62 19.0549 14.3C19.8816 13.98 20.8416 13.82 21.9349 13.82C22.9749 13.82 23.9082 13.96 24.7349 14.24C25.5616 14.5066 26.2082 14.8866 26.6749 15.38C27.1416 15.8733 27.3749 16.44 27.3749 17.08C27.3749 17.5733 27.1882 17.9666 26.8149 18.26C26.4549 18.54 25.8549 18.6933 25.0149 18.72C24.9482 17.8266 24.6749 17.1733 24.1949 16.76C23.7149 16.3466 22.9616 16.14 21.9349 16.14C21.0949 16.14 20.4482 16.2733 19.9949 16.54C19.5416 16.8066 19.3149 17.1933 19.3149 17.7C19.3149 18.0466 19.4016 18.3333 19.5749 18.56C19.7482 18.7733 20.0416 18.9666 20.4549 19.14C20.8816 19.3133 21.4882 19.4866 22.2749 19.66C23.6482 19.9666 24.7349 20.32 25.5349 20.72C26.3482 21.1066 26.9349 21.5733 27.2949 22.12C27.6682 22.6666 27.8549 23.34 27.8549 24.14C27.8549 24.9533 27.6216 25.6666 27.1549 26.28C26.7016 26.8933 26.0482 27.3666 25.1949 27.7C24.3549 28.02 23.3616 28.18 22.2149 28.18ZM28.2604 15.34C28.2604 14.9533 28.4004 14.6333 28.6804 14.38C28.9737 14.1266 29.327 14 29.7404 14H35.2004C36.187 14 37.0604 14.2 37.8204 14.6C38.5804 14.9866 39.167 15.5333 39.5804 16.24C40.007 16.9466 40.2204 17.7666 40.2204 18.7C40.2204 19.6466 40.0137 20.48 39.6004 21.2C39.187 21.9066 38.6004 22.4533 37.8404 22.84C37.0937 23.2266 36.2137 23.42 35.2004 23.42H31.2004V26.06C31.2004 26.7533 30.947 27.28 30.4404 27.64C29.947 28 29.2204 28.18 28.2604 28.18V15.34ZM35.2004 20.88C35.867 20.88 36.3804 20.6933 36.7404 20.32C37.1004 19.9333 37.2804 19.3866 37.2804 18.68C37.2804 18 37.1004 17.4733 36.7404 17.1C36.3804 16.7266 35.867 16.54 35.2004 16.54H31.2004V20.88H35.2004Z" fill="url(#paint0_linear_227_11)"/>
<path d="M58.76 28.18C56.8933 28.18 55.4133 27.86 54.32 27.22C53.24 26.58 52.7 25.6933 52.7 24.56C52.7 24.0667 52.8867 23.6667 53.26 23.36C53.6333 23.0533 54.26 22.9 55.14 22.9C55.1933 23.8733 55.5267 24.6133 56.14 25.12C56.7667 25.6133 57.64 25.86 58.76 25.86C59.6267 25.86 60.3067 25.7133 60.8 25.42C61.2933 25.1133 61.54 24.6933 61.54 24.16C61.54 23.8 61.4467 23.5067 61.26 23.28C61.0733 23.0533 60.7467 22.8467 60.28 22.66C59.8267 22.4733 59.16 22.28 58.28 22.08C56.9467 21.7733 55.9 21.4267 55.14 21.04C54.38 20.6533 53.8267 20.1933 53.48 19.66C53.1467 19.1267 52.98 18.46 52.98 17.66C52.98 16.9 53.2067 16.2333 53.66 15.66C54.1267 15.0733 54.7733 14.62 55.6 14.3C56.4267 13.98 57.3867 13.82 58.48 13.82C59.52 13.82 60.4533 13.96 61.28 14.24C62.1067 14.5067 62.7533 14.8867 63.22 15.38C63.6867 15.8733 63.92 16.44 63.92 17.08C63.92 17.5733 63.7333 17.9667 63.36 18.26C63 18.54 62.4 18.6933 61.56 18.72C61.4933 17.8267 61.22 17.1733 60.74 16.76C60.26 16.3467 59.5067 16.14 58.48 16.14C57.64 16.14 56.9933 16.2733 56.54 16.54C56.0867 16.8067 55.86 17.1933 55.86 17.7C55.86 18.0467 55.9467 18.3333 56.12 18.56C56.2933 18.7733 56.5867 18.9667 57 19.14C57.4267 19.3133 58.0333 19.4867 58.82 19.66C60.1933 19.9667 61.28 20.32 62.08 20.72C62.8933 21.1067 63.48 21.5733 63.84 22.12C64.2133 22.6667 64.4 23.34 64.4 24.14C64.4 24.9533 64.1667 25.6667 63.7 26.28C63.2467 26.8933 62.5933 27.3667 61.74 27.7C60.9 28.02 59.9067 28.18 58.76 28.18ZM68.347 28.18C67.6537 28.18 67.0804 28.0467 66.627 27.78C66.1737 27.5133 65.8804 27.1333 65.747 26.64L63.507 18.06C63.627 17.9933 63.807 17.94 64.047 17.9C64.287 17.8467 64.5137 17.82 64.727 17.82C65.167 17.82 65.5337 17.92 65.827 18.12C66.1337 18.3067 66.3204 18.5533 66.387 18.86L67.387 23.82L67.107 25.02L67.247 25.06L68.927 18.72C69.007 18.4533 69.1604 18.24 69.387 18.08C69.6137 17.9067 69.9004 17.82 70.247 17.82C70.607 17.82 70.907 17.9067 71.147 18.08C71.387 18.24 71.5404 18.4533 71.607 18.72L72.887 23.98L72.567 25.24L72.707 25.28L74.107 18.86C74.1737 18.5533 74.3604 18.3067 74.667 18.12C74.9737 17.92 75.3404 17.82 75.767 17.82C75.9937 17.82 76.2204 17.8467 76.447 17.9C76.687 17.94 76.867 17.9933 76.987 18.06L74.767 26.64C74.647 27.12 74.327 27.5 73.807 27.78C73.287 28.0467 72.6804 28.18 71.987 28.18L70.067 20.34L69.947 20.38L70.187 21.3L68.347 28.18ZM78.662 17.06C78.1554 17.06 77.7287 16.9133 77.382 16.62C77.0487 16.3133 76.882 15.92 76.882 15.44C76.882 14.96 77.0487 14.5733 77.382 14.28C77.7287 13.9733 78.1554 13.82 78.662 13.82C79.1687 13.82 79.5887 13.9733 79.922 14.28C80.2687 14.5733 80.442 14.96 80.442 15.44C80.442 15.92 80.2687 16.3133 79.922 16.62C79.5887 16.9133 79.1687 17.06 78.662 17.06ZM77.282 19.42C77.282 18.8467 77.5087 18.44 77.962 18.2C78.4154 17.9467 79.102 17.82 80.022 17.82V26.58C80.022 27.1533 79.7954 27.5667 79.342 27.82C78.8887 28.06 78.202 28.18 77.282 28.18V19.42ZM82.2237 20.02H80.6437C80.6437 19.3267 80.7371 18.82 80.9237 18.5C81.1237 18.1667 81.4237 18 81.8237 18H82.2237V17.32C82.2237 16.32 82.5171 15.4867 83.1037 14.82C83.7037 14.1533 84.5771 13.82 85.7237 13.82C86.5237 13.82 87.1304 13.9933 87.5437 14.34C87.9704 14.6733 88.1837 15.0533 88.1837 15.48C88.1837 15.68 88.1371 15.88 88.0437 16.08C87.9637 16.28 87.8504 16.4467 87.7037 16.58C87.2104 16.3133 86.7104 16.18 86.2037 16.18C85.7771 16.18 85.4637 16.28 85.2637 16.48C85.0637 16.6667 84.9637 16.98 84.9637 17.42V18H87.5837C87.5837 18.72 87.4504 19.24 87.1837 19.56C86.9171 19.8667 86.4771 20.02 85.8637 20.02H84.9637V26.58C84.9637 27.1533 84.7371 27.5667 84.2837 27.82C83.8437 28.06 83.1571 28.18 82.2237 28.18V20.02ZM92.5005 28.18C91.3671 28.18 90.5338 27.8533 90.0005 27.2C89.4671 26.5467 89.2005 25.7067 89.2005 24.68V20.02H87.0805C87.0805 19.34 87.2071 18.8333 87.4605 18.5C87.7138 18.1667 88.0471 18 88.4605 18H89.2405V16.42C89.2405 15.8467 89.4605 15.44 89.9005 15.2C90.3405 14.9467 91.0071 14.82 91.9005 14.82V18H94.5605C94.5605 18.72 94.4271 19.24 94.1605 19.56C93.8938 19.8667 93.4538 20.02 92.8405 20.02H91.9405V24.58C91.9405 25.02 92.0271 25.34 92.2005 25.54C92.3738 25.7267 92.6738 25.82 93.1005 25.82C93.5671 25.82 94.0471 25.6867 94.5405 25.42C94.6871 25.5533 94.8005 25.72 94.8805 25.92C94.9738 26.12 95.0205 26.32 95.0205 26.52C95.0205 26.7867 94.9271 27.0467 94.7405 27.3C94.5538 27.5533 94.2671 27.7667 93.8805 27.94C93.5071 28.1 93.0471 28.18 92.5005 28.18ZM99.1727 15.34C99.1727 14.9533 99.3127 14.6333 99.5927 14.38C99.886 14.1267 100.239 14 100.653 14H106.113C107.099 14 107.973 14.2 108.733 14.6C109.493 14.9867 110.079 15.5333 110.493 16.24C110.919 16.9467 111.133 17.7667 111.133 18.7C111.133 19.6467 110.926 20.48 110.513 21.2C110.099 21.9067 109.513 22.4533 108.753 22.84C108.006 23.2267 107.126 23.42 106.113 23.42H102.113V26.06C102.113 26.7533 101.859 27.28 101.353 27.64C100.859 28 100.133 28.18 99.1727 28.18V15.34ZM106.113 20.88C106.779 20.88 107.293 20.6933 107.653 20.32C108.013 19.9333 108.193 19.3867 108.193 18.68C108.193 18 108.013 17.4733 107.653 17.1C107.293 16.7267 106.779 16.54 106.113 16.54H102.113V20.88H106.113ZM114.554 28.18C113.674 28.18 112.874 28.02 112.154 27.7C111.434 27.38 110.867 26.94 110.454 26.38C110.04 25.8067 109.834 25.16 109.834 24.44V21.78C109.834 21.0467 110.034 20.38 110.434 19.78C110.834 19.1667 111.394 18.6867 112.114 18.34C112.834 17.9933 113.647 17.82 114.554 17.82C115.46 17.82 116.274 17.9933 116.994 18.34C117.714 18.6867 118.274 19.1667 118.674 19.78C119.074 20.38 119.274 21.0467 119.274 21.78V24.44C119.274 25.16 119.067 25.8067 118.654 26.38C118.24 26.94 117.674 27.38 116.954 27.7C116.234 28.02 115.434 28.18 114.554 28.18ZM114.554 25.82C115.18 25.82 115.667 25.68 116.014 25.4C116.36 25.12 116.534 24.7333 116.534 24.24V21.92C116.534 21.4 116.354 20.98 115.994 20.66C115.647 20.34 115.167 20.18 114.554 20.18C113.94 20.18 113.454 20.34 113.094 20.66C112.747 20.98 112.574 21.4 112.574 21.92V24.24C112.574 24.7333 112.747 25.12 113.094 25.4C113.44 25.68 113.927 25.82 114.554 25.82ZM125.093 20.18C124.293 20.18 123.647 20.3867 123.153 20.8C122.66 21.2133 122.413 21.7333 122.413 22.36V26.58C122.413 27.1533 122.187 27.5667 121.733 27.82C121.293 28.06 120.607 28.18 119.673 28.18V19.9C119.673 19.2333 119.893 18.72 120.333 18.36C120.773 18 121.427 17.82 122.293 17.82V19C122.093 19.2133 121.927 19.44 121.793 19.68L121.933 19.76C122.773 18.4667 123.82 17.82 125.073 17.82C125.673 17.82 126.127 17.98 126.433 18.3C126.74 18.62 126.893 19.0267 126.893 19.52C126.893 19.8933 126.793 20.22 126.593 20.5C126.22 20.2867 125.72 20.18 125.093 20.18ZM131.614 28.18C130.48 28.18 129.647 27.8533 129.114 27.2C128.58 26.5467 128.314 25.7067 128.314 24.68V20.02H126.194C126.194 19.34 126.32 18.8333 126.574 18.5C126.827 18.1667 127.16 18 127.574 18H128.354V16.42C128.354 15.8467 128.574 15.44 129.014 15.2C129.454 14.9467 130.12 14.82 131.014 14.82V18H133.674C133.674 18.72 133.54 19.24 133.274 19.56C133.007 19.8667 132.567 20.02 131.954 20.02H131.054V24.58C131.054 25.02 131.14 25.34 131.314 25.54C131.487 25.7267 131.787 25.82 132.214 25.82C132.68 25.82 133.16 25.6867 133.654 25.42C133.8 25.5533 133.914 25.72 133.994 25.92C134.087 26.12 134.134 26.32 134.134 26.52C134.134 26.7867 134.04 27.0467 133.854 27.3C133.667 27.5533 133.38 27.7667 132.994 27.94C132.62 28.1 132.16 28.18 131.614 28.18ZM135.51 20.02H133.93C133.93 19.3267 134.023 18.82 134.21 18.5C134.41 18.1667 134.71 18 135.11 18H135.51V17.32C135.51 16.32 135.803 15.4867 136.39 14.82C136.99 14.1533 137.863 13.82 139.01 13.82C139.81 13.82 140.416 13.9933 140.83 14.34C141.256 14.6733 141.47 15.0533 141.47 15.48C141.47 15.68 141.423 15.88 141.33 16.08C141.25 16.28 141.136 16.4467 140.99 16.58C140.496 16.3133 139.996 16.18 139.49 16.18C139.063 16.18 138.75 16.28 138.55 16.48C138.35 16.6667 138.25 16.98 138.25 17.42V18H140.87C140.87 18.72 140.736 19.24 140.47 19.56C140.203 19.8667 139.763 20.02 139.15 20.02H138.25V26.58C138.25 27.1533 138.023 27.5667 137.57 27.82C137.13 28.06 136.443 28.18 135.51 28.18V20.02ZM144.481 28.18C143.601 28.18 142.801 28.02 142.081 27.7C141.361 27.38 140.794 26.94 140.381 26.38C139.968 25.8067 139.761 25.16 139.761 24.44V21.78C139.761 21.0467 139.961 20.38 140.361 19.78C140.761 19.1667 141.321 18.6867 142.041 18.34C142.761 17.9933 143.574 17.82 144.481 17.82C145.388 17.82 146.201 17.9933 146.921 18.34C147.641 18.6867 148.201 19.1667 148.601 19.78C149.001 20.38 149.201 21.0467 149.201 21.78V24.44C149.201 25.16 148.994 25.8067 148.581 26.38C148.168 26.94 147.601 27.38 146.881 27.7C146.161 28.02 145.361 28.18 144.481 28.18ZM144.481 25.82C145.108 25.82 145.594 25.68 145.941 25.4C146.288 25.12 146.461 24.7333 146.461 24.24V21.92C146.461 21.4 146.281 20.98 145.921 20.66C145.574 20.34 145.094 20.18 144.481 20.18C143.868 20.18 143.381 20.34 143.021 20.66C142.674 20.98 142.501 21.4 142.501 21.92V24.24C142.501 24.7333 142.674 25.12 143.021 25.4C143.368 25.68 143.854 25.82 144.481 25.82Z" fill="white"/>
<defs>
<linearGradient id="paint0_linear_227_11" x1="18.4812" y1="9.49997" x2="41.4283" y2="39.6935" gradientUnits="userSpaceOnUse">
<stop stop-color="#79F5F5"/>
<stop offset="1" stop-color="#4777D6"/>
</linearGradient>
</defs>
</svg>
